<svg xmlns="http://www.w3.org/2000/svg" viewBox="0 0 695.28 81.72"><defs><style>.cls-1{fill:#fff;}</style></defs><title>logo</title><g id="Layer_1" data-name="Layer 1"><path class="cls-1" d="M17.22,79.73H0V1.85c11.13-.26,18-.53,20.93-.53,11.39,0,20.39,3.45,27,10.07S58,26.75,58,37.88C57.75,65.69,44.24,79.73,17.22,79.73Zm-3.45-66V67a63.47,63.47,0,0,0,7.16.26A20,20,0,0,0,37.35,59.6c4-5,5.83-12.18,5.83-21.19,0-16.69-7.68-24.9-23.31-24.9A59.46,59.46,0,0,0,13.77,13.77Z"/><path class="cls-1" d="M81.06,14V32.32h25.69V44H81.06V67.28h35.23V79.47h-49V1.59h49.8V13.77h-36Z"/><path class="cls-1" d="M177.74,80.79,140.13,31.52V80H126.88V1.59h6.63l36.82,47.15V1.59h13.24V80.53h-5.83Z"/><path class="cls-1" d="M239.68,79.73,218,46.62l-8.74,11.92V80H195.44V1.59h13.78V38.94L235.7,1.59h15.63L227,35.76l29.14,44Z"/><path class="cls-1" d="M335.57,79.73H322.06l-8.21-42.12L298.22,80.79h-5L277.56,37.61l-8.48,42.12H255.84L271.46,1.59h7.42l17,52.45L312.26,1.59h7.42Z"/><path class="cls-1" d="M389.61,79.73l-5.83-15.89H357l-5.57,15.89H336.1L367.36.53h6.09l31.26,78.94h-15.1ZM370.53,24.37l-9.27,28.87h18.81Z"/><path class="cls-1" d="M413.18,79.73V1.59H427V67.28h35.23V79.47h-49Z"/><path class="cls-1" d="M471.56,71.92a9.94,9.94,0,1,1,2.91,6.89A8.34,8.34,0,0,1,471.56,71.92Z"/><path class="cls-1" d="M493.91,40c0-11.13,2.91-20.4,9-28.08A29.79,29.79,0,0,1,527.28.26c11.13,0,19.87,3.45,25.7,10.34s9,16.68,9,29.4-3.18,22.51-9.28,29.93-15.09,11.13-26.48,11.13c-10.6,0-18.55-3.71-24.11-10.86C496.82,62.78,493.91,52.71,493.91,40Zm14.57,0c0,9,1.59,16.16,4.5,21.19a15,15,0,0,0,13.51,7.42c6.89,0,12.19-2.39,15.89-7.42Q547.95,54,548,39.73c0-18.27-6.63-27.54-20.14-27.54a16.27,16.27,0,0,0-14.3,7.41C510.07,24.63,508.48,31.52,508.48,40Z"/><path class="cls-1" d="M615.76,79.73,594.83,47.42c-2.12,0-5-.27-8.74-.27V79.73h-14.3V1.59c.79,0,3.71-.27,9-.53s9.54-.53,12.72-.53c19.86,0,29.67,7.68,29.67,23a22.5,22.5,0,0,1-4,12.71,21.87,21.87,0,0,1-10.33,8l23,35.23H615.76Zm-29.67-66V35.5a54.89,54.89,0,0,0,5.83.26q8.75,0,12.71-2.38t4-9.54c0-3.71-1.33-6.62-4.24-7.95s-7.42-2.38-13.51-2.38A29.35,29.35,0,0,0,586.09,13.77Z"/><path class="cls-1" d="M692.1,8l-5.83,11.12a28.59,28.59,0,0,0-7.68-4.24,26,26,0,0,0-8.74-2.12c-7.69,0-13.78,2.65-18.28,7.69-4.5,5.29-6.62,12.18-6.62,20.92,0,8.21,2.12,14.84,6.62,19.87,4.24,5,10.33,7.42,17.75,7.42,5,0,9-1.33,12.18-4V49.27H670.64V37.35h24.64v35c-3.18,2.64-7.69,4.76-12.72,6.35a53.31,53.31,0,0,1-15.63,2.39c-11.12,0-20.13-3.71-26.49-11.13-6.62-7.42-9.8-17-9.8-29.14s3.45-21.72,10.6-29.4C648.39,4,657.93,0,670.11,0,678.85.26,686,2.91,692.1,8Z"/></g></svg>