<svg xmlns="http://www.w3.org/2000/svg" viewBox="0 0 466.38 80.7"><defs><style>.cls-1{fill:#fff;}</style></defs><title>logo_1</title><g id="Layer_1" data-name="Layer 1"><path class="cls-1" d="M17.13,79.64H0V2.48q16.4-.59,20.61-.58,16.86,0,26.75,9.88T57.24,38Q57.24,79.64,17.13,79.64ZM13.7,14.44V67.15q3.33.31,7.17.32,10.4,0,16.26-7.54T43,38.85q0-24.78-23-24.78C18.5,14.07,16.41,14.2,13.7,14.44Z"/><path class="cls-1" d="M78.75,14.6V32.68h25.51V44.33H78.75V67.47h35V79.64H65.05V2.42h49.28V14.6Z"/><path class="cls-1" d="M173.87,80.7,136.39,31.84V79.69H123.21V2.42h6.59L166.28,49V2.42h13.17V80.7Z"/><path class="cls-1" d="M234.75,79.64,213.24,46.75l-8.59,11.76V79.64H191V2.42h13.7V39.37L230.9,2.42h15.6L222.31,36.16l28.83,43.48Z"/><path class="cls-1" d="M287.19,21.56l-7.06.58,7.22,4.11,4.53,5.85-10.17,7.59-4.43-6.43-2.79-6.75-2.59,6-5.85,7.17L257,31.57l6.22-6.06,5.8-3-7.12-.64-8.22-3.26L258.83,7.8l8.33,3.53,3.74,4-2.84-8.17V0L280.5.05V7l-2.43,8.54,5.27-4.69,7.49-3.27,4.27,10.59Z"/><path class="cls-1" d="M378.38,79.69H365.09l-8-41.63L341.53,80.7h-4.9L321.08,38.06l-8.33,41.63H299.52L315.07,2.42h7.28l16.7,52,16.34-52h7.23Z"/><path class="cls-1" d="M383.83,79.64V2.42h13.71V79.64Z"/><path class="cls-1" d="M440.71,14.6v65H427v-65H402.44V2.42h63.94V14.6Z"/></g></svg>