<svg xmlns="http://www.w3.org/2000/svg" viewBox="0 0 345.77 54.93"><defs><style>.cls-1{fill:#fff;}</style></defs><title>logo_2</title><g id="Layer_1" data-name="Layer 1"><path class="cls-1" d="M8.81,47.47H0V7.6c5.69-.13,9.22-.27,10.71-.27,5.83,0,10.44,1.76,13.83,5.15S29.69,20.35,29.69,26C29.56,40.28,22.64,47.47,8.81,47.47ZM7.05,13.7V41a33.24,33.24,0,0,0,3.66.13,10.23,10.23,0,0,0,8.41-3.93c2-2.57,3-6.24,3-10.85,0-8.54-3.93-12.74-11.93-12.74A31.15,31.15,0,0,0,7.05,13.7Z"/><path class="cls-1" d="M41.49,13.84V23.2H54.64v6H41.49V41.09h18v6.24H34.44V7.47H59.93V13.7H41.49Z"/><path class="cls-1" d="M91,48,71.73,22.79V47.6H65V7.47h3.39L87.18,31.6V7.47H94v40.4H91Z"/><path class="cls-1" d="M122.68,47.47,111.56,30.52l-4.47,6.1v11h-7V7.47h7V26.59L120.65,7.47h8L116.17,25l14.92,22.51Z"/><path class="cls-1" d="M171.77,47.47h-6.92l-4.2-21.56-8,22.1h-2.58l-8-22.1-4.34,21.56H131l8-40h3.8l8.68,26.84,8.4-26.84h3.8Z"/><path class="cls-1" d="M199.43,47.47l-3-8.14H182.75l-2.85,8.14H172L188,6.92h3.12l16,40.41h-7.72Zm-9.77-28.34-4.74,14.78h9.62Z"/><path class="cls-1" d="M211.49,47.47v-40h7V41.09h18v6.24H211.49Z"/><path class="cls-1" d="M242.77,0V54.93h103V0ZM284,45.48l-3.78-19.67L272.91,46H270.6l-7.35-20.15-3.94,19.67h-6.25L260.41,9h3.44l7.89,24.58L279.46,9h3.41l7.45,36.5Zm16.86,0h-6.47V9h6.47Zm34.57-30.73H323.34V45.46h-6.47V14.73H305.26V9h30.21Z"/></g></svg>