<svg xmlns="http://www.w3.org/2000/svg" viewBox="0 0 50 50"><title>copy</title><g id="Layer_1" data-name="Layer 1"><path d="M21.18,38.86H37.05a1.58,1.58,0,1,0,0-3.16H21.18a1.58,1.58,0,0,0,0,3.16Zm-5,4.45H41.46V14.46H16.17Zm-1.58-32H33.83V6.69H8.54V35.54H13V12.88a1.58,1.58,0,0,1,1.58-1.58Zm30,1.58v32a1.58,1.58,0,0,1-1.58,1.58H14.59A1.58,1.58,0,0,1,13,44.89V38.7H7a1.58,1.58,0,0,1-1.58-1.58v-32A1.58,1.58,0,0,1,7,3.53H35.41A1.58,1.58,0,0,1,37,5.11V11.3h6.06a1.58,1.58,0,0,1,1.58,1.58ZM21.18,31H37.05a1.58,1.58,0,1,0,0-3.16H21.18a1.58,1.58,0,1,0,0,3.16ZM19.6,21.48a1.59,1.59,0,0,1,1.58-1.59H37.05a1.59,1.59,0,0,1,0,3.17H21.18a1.58,1.58,0,0,1-1.58-1.58Z"/></g></svg>