<svg id="Layer_1" data-name="Layer 1" xmlns="http://www.w3.org/2000/svg" viewBox="0 0 280 180"><defs><style>.cls-1{fill:#1a1a1a;}</style></defs><title>family</title><path class="cls-1" d="M209.42,179.08H192.79A9.6,9.6,0,0,1,209.42,179.08Z"/><path class="cls-1" d="M209.44,179.08h16.63A9.6,9.6,0,0,0,209.44,179.08Z"/><circle class="cls-1" cx="218.62" cy="123.86" r="6.13"/><circle class="cls-1" cx="196.26" cy="123.86" r="6.13"/><path class="cls-1" d="M242.41,128.6h0c0-.33-.06,0-.09-.29V129h0a50.81,50.81,0,0,0-4.66-18.57c-2.12-4.55,2.68-9.7-1-16.71-7.66,8.24-20.2,7-27.25,7s-19.55,1-27.21-7.25c-3.74,7,1.09,11.76-1,16.31a54.58,54.58,0,0,0-4.75,18.89,92.45,92.45,0,0,0,2,24.67c8.27.74,20.66,19.74,20.66,19.74l4.24-3.75v0l6.08,6.43,6-6.36,4.34,3.64s12.38-19,20.65-19.74A99.91,99.91,0,0,0,242.41,128.6Zm-21.79,9.85a12.46,12.46,0,0,1-6.16-1.62c-1.33,2.74-5,5.69-5,5.69s-3.69-3-5-5.69a12.59,12.59,0,1,1,5-16.74,12.59,12.59,0,1,1,11.18,18.36Z"/><path class="cls-1" d="M99.17,180H69A17.39,17.39,0,0,1,99.17,180Z"/><path class="cls-1" d="M99.2,180h30.12A17.38,17.38,0,0,0,99.2,180Z"/><path class="cls-1" d="M81.89,74.38a8.51,8.51,0,1,0,8.51,8.51A8.51,8.51,0,0,0,81.89,74.38Z"/><path class="cls-1" d="M126.6,74.38a8.51,8.51,0,1,0,8.51,8.51A8.51,8.51,0,0,0,126.6,74.38Z"/><path class="cls-1" d="M156.75,87.05a99.28,99.28,0,0,0-8.57-34.25c-3.85-8.24,5-16.92-1.79-29.62-13.87,14.93-36.44,13-49.15,13S62,38.11,48.09,23.18c-6.76,12.7,2.07,21.38-1.78,29.62a99.28,99.28,0,0,0-8.57,34.25,167.85,167.85,0,0,0,3.67,44.72c15,1.33,37.43,35.76,37.43,35.76l7.58-6.69,10.82,11.6,10.83-11.6,7.58,6.69s22.45-34.43,37.43-35.76A168.26,168.26,0,0,0,156.75,87.05ZM86.4,95.4a20.75,20.75,0,0,1-11.51,3.46,21,21,0,1,1,21-21c0,.48,0,1-.06,1.42-5.94.68-9.71,5.78-9.71,13.39A12.62,12.62,0,0,0,86.4,95.4Zm10.79,10.36c-2.17-1.4-8.43-6.12-8.43-13.06,0-11.18,8.46-10.75,8.46-10.76s8.4-.42,8.4,10.76C105.63,99.64,99.36,104.36,97.19,105.76Zm22.41-6.9a20.81,20.81,0,0,1-11.52-3.46,12,12,0,0,0,.32-2.7c0-7.61-3.77-12.71-9.72-13.39,0-.47-.05-.94-.05-1.42a21,21,0,1,1,21,21Z"/></svg>