<svg xmlns="http://www.w3.org/2000/svg" viewBox="0 0 1000 400"><defs><style>.cls-1{fill:#333;}.cls-2{fill:#ccc;}.cls-3{fill:#fff;}</style></defs><title>header</title><g id="Layer_1" data-name="Layer 1"><path class="cls-1" d="M911.9,139a58.94,58.94,0,0,0,51.82-30.66,67.51,67.51,0,0,1-60.59-86.9A59.1,59.1,0,0,0,911.9,139Z"/><polygon class="cls-1" points="578.39 304.74 592.13 264.53 605.86 304.74 646.08 318.48 605.86 332.21 592.13 372.43 578.39 332.21 538.18 318.48 578.39 304.74"/><polygon class="cls-1" points="47.74 40.31 55.85 16.57 63.96 40.31 87.7 48.42 63.96 56.53 55.85 80.27 47.74 56.53 24 48.42 47.74 40.31"/><path class="cls-2" d="M123.17,207.19c-2.68-1.72-10.39-7.53-10.38-16.08,0-13.77,10.41-13.25,10.41-13.25s10.35-.52,10.35,13.25C133.56,199.66,125.84,205.47,123.17,207.19Z"/><path class="cls-3" d="M126.92,163a25.69,25.69,0,0,0-2,9.9c0,.58,0,1.16.06,1.74,7.33.84,12,7.12,12,16.5a14.73,14.73,0,0,1-.39,3.33,25.79,25.79,0,0,0,34.86-37Zm23.85,25.83a10.49,10.49,0,1,1,10.48-10.48A10.49,10.49,0,0,1,150.77,188.8Z"/><path class="cls-3" d="M75,157.45a25.8,25.8,0,0,0,34.86,37,15.32,15.32,0,0,1-.39-3.33c0-9.38,4.64-15.66,12-16.5q.06-.87.06-1.74a25.69,25.69,0,0,0-2-9.9ZM95.7,188.8a10.49,10.49,0,1,1,10.48-10.48A10.49,10.49,0,0,1,95.7,188.8Z"/><path class="cls-2" d="M271,243.1c-1.33-.85-5.16-3.74-5.16-8,0-6.84,5.18-6.58,5.18-6.58s5.14-.26,5.14,6.58C276.11,239.36,272.28,242.25,271,243.1Z"/><path class="cls-3" d="M272.81,221.13a12.82,12.82,0,0,0-1,4.92c0,.29,0,.58,0,.86,3.64.42,5.95,3.54,5.95,8.2a7.61,7.61,0,0,1-.19,1.66,12.82,12.82,0,0,0,17.32-18.39ZM284.67,234a5.21,5.21,0,1,1,5.21-5.21A5.21,5.21,0,0,1,284.67,234Z"/><path class="cls-3" d="M247,218.38a12.83,12.83,0,0,0,17.33,18.39,7.61,7.61,0,0,1-.19-1.66c0-4.66,2.3-7.78,5.94-8.2,0-.28,0-.57,0-.86a12.82,12.82,0,0,0-1-4.92ZM257.3,234a5.21,5.21,0,1,1,5.21-5.21A5.21,5.21,0,0,1,257.3,234Z"/><path class="cls-2" d="M636.93,190.35c-1.33-.86-5.16-3.74-5.16-8,0-6.84,5.18-6.58,5.18-6.59s5.14-.25,5.14,6.59C642.1,186.61,638.26,189.49,636.93,190.35Z"/><path class="cls-3" d="M638.8,168.38a12.55,12.55,0,0,0-1,4.91c0,.29,0,.58,0,.87,3.64.42,5.94,3.54,5.94,8.2a7.52,7.52,0,0,1-.19,1.65,12.73,12.73,0,0,0,7,2.12,12.8,12.8,0,0,0,10.27-20.5Zm11.85,12.83a5.21,5.21,0,1,1,5.21-5.21A5.21,5.21,0,0,1,650.65,181.21Z"/><path class="cls-3" d="M613,165.63a12.7,12.7,0,0,0-2.57,7.66A12.83,12.83,0,0,0,630.33,184a7.52,7.52,0,0,1-.19-1.65c0-4.66,2.3-7.78,5.94-8.2,0-.29,0-.58,0-.87a12.73,12.73,0,0,0-1-4.91Zm10.27,15.58a5.21,5.21,0,1,1,5.21-5.21A5.21,5.21,0,0,1,623.28,181.21Z"/><path class="cls-2" d="M426.83,166.27c-2.29-1.48-8.9-6.45-8.89-13.77,0-11.79,8.92-11.34,8.92-11.35s8.86-.44,8.86,11.35C435.72,159.82,429.12,164.79,426.83,166.27Z"/><path class="cls-3" d="M430,128.41a21.92,21.92,0,0,0-1.69,8.47c0,.5,0,1,0,1.49,6.27.72,10.24,6.1,10.24,14.13a12.91,12.91,0,0,1-.33,2.85,22.08,22.08,0,0,0,29.85-31.67Zm20.42,22.11a9,9,0,1,1,9-9A9,9,0,0,1,450.46,150.52Z"/><path class="cls-3" d="M385.61,123.68a22.08,22.08,0,0,0,29.84,31.67,12.91,12.91,0,0,1-.33-2.85c0-8,4-13.41,10.25-14.13,0-.49.05-1,.05-1.49a22.11,22.11,0,0,0-1.69-8.47Zm17.7,26.84a9,9,0,1,1,9-9A9,9,0,0,1,403.31,150.52Z"/><path class="cls-2" d="M872.88,245.58c-2.77-1.78-10.75-7.79-10.74-16.63,0-14.24,10.77-13.7,10.77-13.7s10.7-.54,10.7,13.7C883.62,237.79,875.64,243.8,872.88,245.58Z"/><path class="cls-3" d="M876.75,199.86a26.6,26.6,0,0,0-2,10.23q0,.91.06,1.8c7.58.87,12.38,7.37,12.38,17.06a15.64,15.64,0,0,1-.4,3.44,26.46,26.46,0,0,0,14.67,4.41,26.74,26.74,0,0,0,26.71-26.71,26.46,26.46,0,0,0-5.34-15.94Zm24.67,26.71a10.84,10.84,0,1,1,10.84-10.84A10.84,10.84,0,0,1,901.42,226.57Z"/><path class="cls-3" d="M823.09,194.15a26.67,26.67,0,0,0,36,38.24,15.64,15.64,0,0,1-.39-3.44c0-9.69,4.79-16.19,12.37-17.06q.06-.88.06-1.8a26.6,26.6,0,0,0-2-10.23Zm21.38,32.42a10.84,10.84,0,1,1,10.84-10.84A10.84,10.84,0,0,1,844.47,226.57Z"/></g></svg>