<svg id="Ebene_1" data-name="Ebene 1" xmlns="http://www.w3.org/2000/svg" viewBox="0 0 264.92 53.84"><defs><style>.cls-1{fill:#1d1d1b;}</style></defs><title>Artboard 4</title><path class="cls-1" d="M.79,52.59.4,50.3a31.15,31.15,0,0,1,4.12-.2,44.59,44.59,0,0,1,.31-6.43c.28-2.92.56-5.92.08-8.23-1.59-.14-3.39-1-3.89-2.22C-.24,28.74,0,24.49.13,20.38L.2,18.69l.11-.22a1.93,1.93,0,0,1,1.08-.91,3.56,3.56,0,0,0,0-.86A3.81,3.81,0,0,1,2,13.92a5.47,5.47,0,0,1,3.9-1.79,9.61,9.61,0,0,0,1.75-.38v-.1C5,10.2,4.32,7,6.07,3a5.31,5.31,0,0,1,.78-1.32A3.38,3.38,0,0,1,9.28.24c2.56-.33,7.1-.9,8.8,3a7.34,7.34,0,0,1,0,5.34L18,8.81l-.2.32A4,4,0,0,1,15.93,11a1,1,0,0,0-.63.6c1.3.44,4.31,1.63,5.87,3.54l.24.29,0,.37a155.22,155.22,0,0,1-.05,18.79l-.07,1.09H20.22a4.53,4.53,0,0,1-.65-.07l-.28,0-.13,0a4.17,4.17,0,0,1-1.4.06,22.51,22.51,0,0,0-.07,4.73,25.91,25.91,0,0,1-.09,5.27,14.59,14.59,0,0,0-.05,1.59,19.88,19.88,0,0,1-.12,2.55,9.32,9.32,0,0,0,1.17-.15c4-.81,11.44-.82,15.36.35a4.22,4.22,0,0,0,1.66,0c-.08-1.33-.07-2.71-.06-4.06v-.36c-.5-.06-1-.08-1.55-.1a8.56,8.56,0,0,1-3.79-.71c-1.14-.54-1-2.3-.77-3.25a27.47,27.47,0,0,1,1.2-3.16,20.27,20.27,0,0,0,1.49-4.28,1.34,1.34,0,0,1-.8-.3,3,3,0,0,0-1.15-.11l-.34-.06A2.57,2.57,0,0,1,28.3,31.3c-.05-.64-.12-1.36-.18-2.06-.4-4.43-.78-8.6,1.63-12.95a4.57,4.57,0,0,1,2.76-1.86c.25-.1.49-.18.72-.28,0-.23,0-.52,0-.83a11.59,11.59,0,0,0-1.18,0c-.29,0-.59,0-.89,0H30V12.19c0-.56,0-1.11-.05-1.66a13.87,13.87,0,0,1,.49-5.37,5.16,5.16,0,0,1,3.4-3.52A10,10,0,0,1,41.57,3a3.62,3.62,0,0,1,1.66,1.85,36.75,36.75,0,0,1,1,6.45l.11,1.33L43,12.51a12.05,12.05,0,0,0-1.79,0v.82c2.83,0,5.83,1.29,6.84,3.95a27.08,27.08,0,0,1,1.55,14.74l-.12.37a2.23,2.23,0,0,1-1.17,1.25,8.65,8.65,0,0,1-1.1.5,10.4,10.4,0,0,1,.62,1.17,6.06,6.06,0,0,0,.94,1.53,9.18,9.18,0,0,1,1.38,7.84l-.15.65-.63.19a9.74,9.74,0,0,1-3.57.24l-1,0a13.05,13.05,0,0,0,.91,3.9,16.58,16.58,0,0,0,4.09.26h1.68v2.31H49.87a19.08,19.08,0,0,1-5.16-.43l-.59-.11-.24-.55c-.19-.42-1.82-4.21-1.19-6.79l.2-.79.81-.09a15.49,15.49,0,0,1,2.26,0,10.41,10.41,0,0,0,2.09,0A6.62,6.62,0,0,0,47,38.31a7.89,7.89,0,0,1-1.21-2,7.57,7.57,0,0,0-.66-1.18L45,34.93a1.91,1.91,0,0,0-.63-.68l.79-2.12a3.29,3.29,0,0,0,2.21-.55.25.25,0,0,0,0-.07,24.8,24.8,0,0,0-1.44-13.35c-.75-2-3.49-2.71-5.69-2.43l-1.3.16V14.17c0-2.55,0-3,.48-3.43l.17-.16.22-.08a6.64,6.64,0,0,1,2-.32A30.7,30.7,0,0,0,41,5.48s-.11-.21-.6-.52c-2.35-1.28-4.15-1.61-6-1.09a3,3,0,0,0-1.83,2,12.14,12.14,0,0,0-.37,4.54l0,.57a6.17,6.17,0,0,1,2.44.28l.69.26.06.73c.22,2.81,0,3.15-.36,3.5l-.25.18a12.27,12.27,0,0,1-1.55.65c-.64.23-1.36.49-1.52.79C29.71,21.14,30,24.79,30.42,29c.07.72.14,1.45.19,2.18a.48.48,0,0,0,0,.15,3.93,3.93,0,0,1,1.85.42h.18a1.86,1.86,0,0,1,1.48.37l.35.34V33c.14,1.91-.81,4.13-1.73,6.28a26.44,26.44,0,0,0-1.1,2.87,2.58,2.58,0,0,0-.08.71,8.31,8.31,0,0,0,2.49.32A13.59,13.59,0,0,1,37,43.5l.87.23V46c0,1.47,0,3,.09,4.35l.25.47-.51.72c-.73.91-3.18,1.05-4.4.7-3.5-1.05-10.63-1-14.2-.31a25.27,25.27,0,0,1-3.17.32l-2,.11.89-1.78a8.86,8.86,0,0,0,.39-3.32,18.39,18.39,0,0,1,.08-1.9,23.57,23.57,0,0,0,.07-4.83,20.22,20.22,0,0,1,.33-6.33l.08-.3.22-.22a1.85,1.85,0,0,1,1.69-.34,5.41,5.41,0,0,0,.79,0,1.63,1.63,0,0,1,.65-.12,153.66,153.66,0,0,0,0-16.9,13.48,13.48,0,0,0-5.08-2.71A1.69,1.69,0,0,1,13,12a3.17,3.17,0,0,1,2.12-3.11c.22-.09.52-.58.72-.9L16,7.65a5,5,0,0,0,0-3.5C15,2,12.45,2.16,9.42,2.54c-.26.06-.66.52-.84.71A3.79,3.79,0,0,0,8.19,4C7.3,6,6.7,8.62,9,9.74c1.25.83,1,2.52.87,3l-.11.48-.42.26a8.22,8.22,0,0,1-3.08.92c-1.2.18-2,.32-2.4.88-.2.29-.18.6-.13,1.21A4.07,4.07,0,0,1,3.29,19l-.19.25a1.82,1.82,0,0,1-.62.38l0,.85c-.18,4.11-.35,8,.77,12a4.07,4.07,0,0,0,2.43.65l1-.14.3.93c.9,2.84.56,6.46.23,10A31.28,31.28,0,0,0,7,51.09l.21,1.37-1.38,0A36.84,36.84,0,0,0,.79,52.59Z"/><path class="cls-1" d="M88.6,30.62V15.51h3.59c2.46,0,4.77.82,4.77,3.72a3.11,3.11,0,0,1-2.74,3.44v0a3.55,3.55,0,0,1,3.2,3.6c0,3.3-2.68,4.31-5.82,4.31Zm1.49-7.22v5.93h1.56c2,0,4.27-.55,4.27-2.95,0-2.7-2.31-3-4.51-3Zm0-6.6v5.31H91.8c1.58,0,3.67-.41,3.67-2.82,0-2.19-2-2.49-3.28-2.49Z"/><polygon class="cls-1" points="107.16 12.38 108.79 12.38 108.79 14.19 107.16 14.19 107.16 12.38 107.16 12.38"/><polygon class="cls-1" points="103.45 12.38 105.08 12.38 105.08 14.19 103.45 14.19 103.45 12.38 103.45 12.38"/><path class="cls-1" d="M111.6,25.33c0,4.46-3.26,5.54-5.47,5.54s-5.47-1.08-5.47-5.54V15.51h1.49v9.82c0,2.47,1.36,4.25,4,4.25s4-1.78,4-4.25V15.51h1.49v9.82Z"/><path class="cls-1" d="M115.24,30.62V15.51h3.9c2.69,0,4.44,1.14,4.44,3.92a3.55,3.55,0,0,1-3.36,3.48V23c1.22.15,1.48.79,2,1.81l2.57,5.85h-1.64l-2.19-5.11c-.87-2-1.52-2-3-2h-1.24v7.13Zm1.49-13.82v5.4h1.58c1.76,0,3.78-.67,3.78-2.77,0-2.48-1.76-2.63-3.82-2.63Z"/><path class="cls-1" d="M137.59,23.72h-3.51V22.43h5v7.51a11.31,11.31,0,0,1-4.7.93c-4.77,0-7.62-3.14-7.62-7.82s2.94-7.79,7.62-7.79a10.43,10.43,0,0,1,4.05.72l-.17,1.37a8,8,0,0,0-3.88-.8c-3.92,0-6.13,2.77-6.13,6.5s2.14,6.53,6.13,6.53a7.62,7.62,0,0,0,3.21-.55V23.72Z"/><polygon class="cls-1" points="142.87 15.51 150.27 15.51 150.27 16.8 144.36 16.8 144.36 22.2 149.97 22.2 149.97 23.49 144.36 23.49 144.36 29.33 150.53 29.33 150.53 30.62 142.87 30.62 142.87 15.51 142.87 15.51"/><path class="cls-1" d="M153.74,30.62V15.51h3.9c2.69,0,4.44,1.14,4.44,3.92a3.55,3.55,0,0,1-3.36,3.48V23c1.22.15,1.48.79,2,1.81l2.57,5.85h-1.64l-2.19-5.11c-.87-2-1.52-2-2.95-2h-1.24v7.13Zm1.49-13.82v5.4h1.58c1.76,0,3.78-.67,3.78-2.77,0-2.48-1.76-2.63-3.82-2.63Z"/><path class="cls-1" d="M176.09,23.72h-3.51V22.43h5v7.51a11.31,11.31,0,0,1-4.7.93c-4.77,0-7.62-3.14-7.62-7.82s2.94-7.79,7.62-7.79a10.43,10.43,0,0,1,4.05.72l-.17,1.37a8,8,0,0,0-3.88-.8c-3.92,0-6.13,2.77-6.13,6.5s2.14,6.53,6.13,6.53a7.62,7.62,0,0,0,3.21-.55V23.72Z"/><polygon class="cls-1" points="181.36 15.51 188.77 15.51 188.77 16.8 182.86 16.8 182.86 22.2 188.47 22.2 188.47 23.49 182.86 23.49 182.86 29.33 189.03 29.33 189.03 30.62 181.36 30.62 181.36 15.51 181.36 15.51"/><polygon class="cls-1" points="192.19 15.51 194.51 15.51 200.03 28.81 205.58 15.51 207.73 15.51 207.73 30.62 206.24 30.62 206.24 17 206.19 17 200.69 30.62 199.41 30.62 193.73 17 193.69 17 193.69 30.62 192.19 30.62 192.19 15.51 192.19 15.51"/><polygon class="cls-1" points="211.44 15.51 218.85 15.51 218.85 16.8 212.93 16.8 212.93 22.2 218.54 22.2 218.54 23.49 212.93 23.49 212.93 29.33 219.1 29.33 219.1 30.62 211.44 30.62 211.44 15.51 211.44 15.51"/><polygon class="cls-1" points="222.09 15.51 223.58 15.51 223.58 30.62 222.09 30.62 222.09 15.51 222.09 15.51"/><polygon class="cls-1" points="226.89 15.51 228.78 15.51 236.46 28.81 236.5 28.81 236.5 15.51 238 15.51 238 30.62 235.99 30.62 228.43 17.59 228.39 17.59 228.39 30.62 226.89 30.62 226.89 15.51 226.89 15.51"/><path class="cls-1" d="M241.41,30.62V15.51h3.73c5.41,0,7.55,3.11,7.55,7.53,0,5.48-3.66,7.58-8.65,7.58ZM242.9,16.8V29.33h1.23c4.28,0,7.07-1.74,7.07-6.38s-2.75-6.15-6.12-6.15Z"/><polygon class="cls-1" points="255.96 15.51 263.36 15.51 263.36 16.8 257.45 16.8 257.45 22.2 263.06 22.2 263.06 23.49 257.45 23.49 257.45 29.33 263.62 29.33 263.62 30.62 255.96 30.62 255.96 15.51 255.96 15.51"/><path class="cls-1" d="M88.6,52.27V37.16h3.74c5.4,0,7.54,3.11,7.54,7.53,0,5.49-3.65,7.58-8.64,7.58Zm1.49-13.82V51h1.23c4.28,0,7.07-1.73,7.07-6.37s-2.75-6.16-6.12-6.16Z"/><polygon class="cls-1" points="104.17 37.16 111.58 37.16 111.58 38.45 105.66 38.45 105.66 43.86 111.27 43.86 111.27 45.15 105.66 45.15 105.66 50.98 111.83 50.98 111.83 52.27 104.17 52.27 104.17 37.16 104.17 37.16"/><path class="cls-1" d="M116.06,52.27V37.16H120c2.69,0,4.44,1.14,4.44,3.92a3.56,3.56,0,0,1-3.35,3.49v0c1.21.15,1.47.8,2,1.81l2.57,5.85h-1.64l-2.19-5.11c-.87-1.95-1.52-2-2.95-2h-1.24v7.12Zm1.49-13.82v5.41h1.59c1.75,0,3.77-.68,3.77-2.78,0-2.48-1.76-2.63-3.82-2.63Z"/><path class="cls-1" d="M135.72,50.34a5.93,5.93,0,0,0,3.33.89c1.86,0,3.39-.95,3.39-3.09,0-3-6.92-3.34-6.92-7.3,0-2.42,2.12-3.93,4.78-3.93a8.93,8.93,0,0,1,3,.5L143,38.77a6.15,6.15,0,0,0-2.75-.57c-1.56,0-3.27.65-3.27,2.6,0,3,6.92,3.05,6.92,7.46,0,3.06-2.61,4.26-5,4.26a8.6,8.6,0,0,1-3.42-.65l.16-1.53Z"/><polygon class="cls-1" points="150.78 38.45 146.32 38.45 146.32 37.16 156.73 37.16 156.73 38.45 152.27 38.45 152.27 52.27 150.78 52.27 150.78 38.45 150.78 38.45"/><path class="cls-1" d="M156.05,52.27l6.19-15.11h1.69l6,15.11h-1.56l-1.62-4.05h-7.62l-1.63,4.05Zm10.2-5.34L163,38.59l-3.29,8.34Z"/><path class="cls-1" d="M173,52.27V37.16h3.74c5.4,0,7.54,3.11,7.54,7.53,0,5.49-3.65,7.58-8.64,7.58Zm1.49-13.82V51h1.23c4.28,0,7.07-1.73,7.07-6.37s-2.74-6.16-6.11-6.16Z"/><polygon class="cls-1" points="189.22 38.45 184.75 38.45 184.75 37.16 195.17 37.16 195.17 38.45 190.71 38.45 190.71 52.27 189.22 52.27 189.22 38.45 189.22 38.45"/><path class="cls-1" d="M205.16,52.27V37.16h3.59c2.46,0,4.77.82,4.77,3.72a3.12,3.12,0,0,1-2.74,3.45v0A3.54,3.54,0,0,1,214,48c0,3.3-2.68,4.31-5.82,4.31Zm1.49-7.21V51h1.56c2,0,4.27-.54,4.27-2.95,0-2.69-2.31-3-4.51-3Zm0-6.61v5.32h1.67c1.57,0,3.67-.42,3.67-2.82,0-2.19-2-2.5-3.28-2.5Z"/><path class="cls-1" d="M216.75,52.27l6.19-15.11h1.69l6,15.11h-1.56l-1.63-4.05h-7.62l-1.62,4.05ZM227,46.93l-3.27-8.34-3.3,8.34Z"/><path class="cls-1" d="M233.39,50.34a6,6,0,0,0,3.33.89c1.86,0,3.4-.95,3.4-3.09,0-3-6.92-3.34-6.92-7.3,0-2.42,2.12-3.93,4.78-3.93a9,9,0,0,1,3,.5l-.24,1.36A6.1,6.1,0,0,0,238,38.2c-1.56,0-3.27.65-3.27,2.6,0,3,6.92,3.05,6.92,7.46,0,3.06-2.61,4.26-5,4.26a8.56,8.56,0,0,1-3.42-.65l.15-1.53Z"/><polygon class="cls-1" points="245.63 37.16 253.04 37.16 253.04 38.45 247.13 38.45 247.13 43.86 252.73 43.86 252.73 45.15 247.13 45.15 247.13 50.98 253.3 50.98 253.3 52.27 245.63 52.27 245.63 37.16 245.63 37.16"/><polygon class="cls-1" points="257.36 37.16 258.86 37.16 258.86 50.98 264.92 50.98 264.92 52.27 257.36 52.27 257.36 37.16 257.36 37.16"/><path class="cls-1" d="M78,27.39a.78.78,0,0,0,.82-.76.85.85,0,0,0-.81-.84H61.34a.8.8,0,0,0,0,1.6Z"/><path class="cls-1" d="M78.82,24.53c.81,0,1.45-.48,1.45-1.06s-.64-1.06-1.45-1.06H60.67c-.8,0-1.44.44-1.44,1a1.34,1.34,0,0,0,1.46,1.1Z"/><polygon class="cls-1" points="62.43 28.28 76.75 28.28 80.44 53.84 73.76 48.3 69.19 53.84 64.62 48.3 57.95 53.66 62.43 28.28 62.43 28.28"/><path class="cls-1" d="M76.83,21.17a.77.77,0,0,0,.81-.76.83.83,0,0,0-.81-.84H62.38a.79.79,0,0,0-.8.79.8.8,0,0,0,.8.81Z"/><path class="cls-1" d="M57.25,11.24s1.22-.37,1.22,1-2.77,1.45-2.77-1.43c0-.56.75-3.5,3.5-3.5,2.53,0,5.36,1.68,5.36,7.05a19.61,19.61,0,0,1-.5,4.38H75.34l-.76-5.27C72.85,1.6,65.23,0,61,0,55.21,0,50.51,4,50.51,10s4.71,7.15,5.86,7.15c4.07,0,5.59-2.27,5.59-4.35,0-1.47-.77-3.11-2.63-3.11a2.12,2.12,0,0,0-2.08,1.58Z"/></svg>