<svg id="Ebene_1" data-name="Ebene 1" xmlns="http://www.w3.org/2000/svg" viewBox="0 0 648.78 313.78"><defs><style>.cls-1{fill:#231f20;}</style></defs><title>Artboard 1</title><path class="cls-1" d="M313.76,125.84l-.65-3.93a15.09,15.09,0,0,1-1.95.17,3,3,0,0,1-1.52-.32,1.83,1.83,0,0,1-.76-.87,7.53,7.53,0,0,1-.24-2.44V103.1h4.47V99.64h-4.47V90.48l-4.42,2.67v6.49H301v3.46h3.26v15.1a16,16,0,0,0,.54,5.25,4.39,4.39,0,0,0,1.88,2,7.62,7.62,0,0,0,3.76.76A16.76,16.76,0,0,0,313.76,125.84Z"/><path class="cls-1" d="M294.75,102.14a6.89,6.89,0,0,0-3-2.24,11.08,11.08,0,0,0-4.36-.85,9.42,9.42,0,0,0-8.35,4.33V99.64h-4v26.25h4.45V111.55c0-3.36.68-5.64,2.06-6.84a7.2,7.2,0,0,1,4.9-1.8,5.86,5.86,0,0,1,3.11.8,4.27,4.27,0,0,1,1.84,2.15,12.16,12.16,0,0,1,.51,4.06v16h4.45V109.75a24.74,24.74,0,0,0-.25-4.32A8.5,8.5,0,0,0,294.75,102.14Z"/><rect class="cls-1" x="306.85" y="199.65" width="9.55" height="49.81"/><path class="cls-1" d="M286.79,228.6q0,7.74-.71,9.73a6.9,6.9,0,0,1-2.65,3.33A7.59,7.59,0,0,1,279,243a5.89,5.89,0,0,1-3.53-1,5.1,5.1,0,0,1-1.92-2.72q-.52-1.71-.53-9.32V213.38h-9.54v22.83a20,20,0,0,0,1.29,8,9.35,9.35,0,0,0,4.18,4.48,13.18,13.18,0,0,0,6.52,1.6,14.52,14.52,0,0,0,6.78-1.66,13.86,13.86,0,0,0,5.18-4.56v5.41h8.87V213.38h-9.55Z"/><rect class="cls-1" x="159.3" width="8.96" height="313.78"/><path class="cls-1" d="M44.21,159.75H99.09a3,3,0,1,0-.17-6H44.38A3,3,0,1,0,44.21,159.75Z"/><path class="cls-1" d="M37.76,172.21h68.08c6.94,0,6.77-9.61-.09-9.61H37.86C31,162.6,30.82,172.21,37.76,172.21Z"/><path class="cls-1" d="M41.7,175a3,3,0,1,0-.17,6h61.15a3,3,0,1,0-.18-6Z"/><polygon class="cls-1" points="217.87 113.33 223.8 107.55 236.7 125.89 243.03 125.89 227.16 104.34 242.36 89.66 235.86 89.66 217.87 107.63 217.87 89.66 213.08 89.66 213.08 125.89 217.87 125.89 217.87 113.33"/><polygon class="cls-1" points="44.12 183.86 28.49 268.79 54.43 249.41 71.47 268.93 88.44 249.38 114.38 268.91 98.92 183.86 44.12 183.86"/><path class="cls-1" d="M42.61,133c.19-9.43-6.73-10.94-6.73-10.94a14,14,0,0,0-3.4-.59c-8.33,0-7.6,7.58-7.6,7.58.24-.93,2-1,2-1,2.87,0,2.82,2.32,2.82,2.32,0,3.09-3.76,3.13-3.76,3.13-6-.14-5.5-7.34-5.5-7.34s.69-11.15,13.91-10.45c0,0,16.83-1,18,21.09,0,0-.51,10-2.23,14.43H93.63c.52-19.39-9.62-37.08-9.62-37.08C68.72,88.17,40.55,89.71,40.55,89.71-1.54,91.09,0,122.48,0,122.48c-.68,26.42,25.08,25.57,25.08,25.57C42.8,147.68,42.61,133,42.61,133Z"/><polygon class="cls-1" points="256.95 199.65 243.42 199.65 223.11 221.77 223.11 199.65 213.05 199.65 213.05 249.46 223.11 249.46 223.11 234.41 231.26 226.08 244.95 249.46 257.96 249.46 238.19 219.05 256.95 199.65"/><path class="cls-1" d="M264.73,125.89h4.64a10,10,0,0,1-1.12-3.16,62.25,62.25,0,0,1-.29-7.84V109a24.89,24.89,0,0,0-.22-4.1,7.07,7.07,0,0,0-1.38-3,7.23,7.23,0,0,0-3.09-2,15.69,15.69,0,0,0-5.46-.79,17.51,17.51,0,0,0-6,.93,8.65,8.65,0,0,0-3.93,2.64,11,11,0,0,0-1.95,4.51l4.35.59a6.79,6.79,0,0,1,2.21-3.89,7.88,7.88,0,0,1,4.63-1.1,7.49,7.49,0,0,1,5.07,1.51c.84.74,1.26,2,1.26,3.83,0,.16,0,.55,0,1.16a40.31,40.31,0,0,1-7.94,1.53,32.84,32.84,0,0,0-3.95.67,10.87,10.87,0,0,0-3.2,1.46,7.29,7.29,0,0,0-3.17,6.08,7,7,0,0,0,2.32,5.4c1.55,1.4,3.76,2.11,6.65,2.11a13.65,13.65,0,0,0,4.9-.87,16.49,16.49,0,0,0,4.76-3A9.3,9.3,0,0,0,264.73,125.89Zm-1.26-11.54a10.64,10.64,0,0,1-.72,4.44,6.93,6.93,0,0,1-2.94,3.08,9.18,9.18,0,0,1-4.57,1.12,5.78,5.78,0,0,1-3.94-1.18,3.86,3.86,0,0,1,1-6.52,16.6,16.6,0,0,1,3.88-.89,33.79,33.79,0,0,0,7.27-1.68Z"/><path class="cls-1" d="M334.7,124.87a10.76,10.76,0,0,0,4.43-4.51,17.38,17.38,0,0,0,1.52-8q0-6.24-3.44-9.79a11.75,11.75,0,0,0-8.84-3.55,12.2,12.2,0,0,0-8.26,2.92q-4,3.51-4.05,10.79,0,6.66,3.4,10.18a11.77,11.77,0,0,0,8.91,3.54A12.84,12.84,0,0,0,334.7,124.87Zm-11.87-4.56c-1.46-1.67-2.2-4.18-2.2-7.55s.74-5.87,2.2-7.53a7.32,7.32,0,0,1,11,0q2.22,2.51,2.22,7.38c0,3.44-.74,6-2.2,7.68a7.33,7.33,0,0,1-11.05,0Z"/><path class="cls-1" d="M339.48,242.36a2.67,2.67,0,0,1-1.61-.48,2,2,0,0,1-.85-1.21,34.88,34.88,0,0,1-.19-5.14V221h6.52v-7.6h-6.52V200.63l-9.58,5.58v7.17h-4.38V221h4.38v15.74a47.09,47.09,0,0,0,.3,6.72,8.78,8.78,0,0,0,1.35,3.72,6.64,6.64,0,0,0,3,2.24,11.9,11.9,0,0,0,4.65.87,18.81,18.81,0,0,0,7.54-1.43l-.81-7.4A12.47,12.47,0,0,1,339.48,242.36Z"/><rect class="cls-1" x="514.64" y="110.54" width="13.66" height="4.47"/><path class="cls-1" d="M575.18,122.08a3,3,0,0,1-1.52-.32,1.83,1.83,0,0,1-.76-.87,7.53,7.53,0,0,1-.24-2.44V103.1h4.48V99.64h-4.48V90.48l-4.42,2.67v6.49H565v3.46h3.26v15.1a16,16,0,0,0,.54,5.25,4.39,4.39,0,0,0,1.88,2,7.62,7.62,0,0,0,3.76.76,16.68,16.68,0,0,0,3.36-.39l-.64-3.93A15.37,15.37,0,0,1,575.18,122.08Z"/><path class="cls-1" d="M555,106.81a47.8,47.8,0,0,0-8-2.31q-5.85-1.32-7.23-2.58a4.11,4.11,0,0,1-1.41-3.21,4.82,4.82,0,0,1,2-3.85q2-1.59,6.34-1.59c2.78,0,4.89.58,6.31,1.75a7.41,7.41,0,0,1,2.51,5.19l4.6-.34a11.06,11.06,0,0,0-1.78-5.71,10.32,10.32,0,0,0-4.73-3.82,18.26,18.26,0,0,0-7.11-1.3,17.26,17.26,0,0,0-6.64,1.24,9.6,9.6,0,0,0-4.55,3.62A9.2,9.2,0,0,0,533.74,99a8.36,8.36,0,0,0,1.27,4.51,9.87,9.87,0,0,0,3.87,3.37,33.16,33.16,0,0,0,7,2.26,63.11,63.11,0,0,1,6.45,1.77,7.34,7.34,0,0,1,3.27,2.13,4.76,4.76,0,0,1,1,3,5.19,5.19,0,0,1-1,3.1,6.8,6.8,0,0,1-3.13,2.24,13.38,13.38,0,0,1-4.84.81,13.75,13.75,0,0,1-5.56-1.07,8.15,8.15,0,0,1-3.64-2.82,9.85,9.85,0,0,1-1.5-4.46l-4.52.4a12.18,12.18,0,0,0,2,6.51,11.58,11.58,0,0,0,5.21,4.31,21,21,0,0,0,8.24,1.43,16.52,16.52,0,0,0,7-1.42,10.85,10.85,0,0,0,4.76-4,9.86,9.86,0,0,0,1.65-5.44,9.06,9.06,0,0,0-1.5-5.16A11,11,0,0,0,555,106.81Z"/><path class="cls-1" d="M648.14,121.91a15.38,15.38,0,0,1-1.95.17,3,3,0,0,1-1.52-.32,1.85,1.85,0,0,1-.77-.87,8,8,0,0,1-.23-2.44V103.1h4.47V99.64h-4.47V90.48l-4.42,2.67v6.49H636v3.46h3.27v15.1a16,16,0,0,0,.54,5.25,4.34,4.34,0,0,0,1.88,2,7.61,7.61,0,0,0,3.75.76,16.68,16.68,0,0,0,3.36-.39Z"/><path class="cls-1" d="M603,114.89V109a26.09,26.09,0,0,0-.22-4.1,7.08,7.08,0,0,0-1.39-3,7.23,7.23,0,0,0-3.09-2,15.69,15.69,0,0,0-5.46-.79,17.45,17.45,0,0,0-6,.93,8.54,8.54,0,0,0-3.93,2.64,10.7,10.7,0,0,0-2,4.51l4.35.59a6.68,6.68,0,0,1,2.21-3.89,7.86,7.86,0,0,1,4.63-1.1,7.49,7.49,0,0,1,5.07,1.51c.84.74,1.26,2,1.26,3.83,0,.16,0,.55,0,1.16a40.33,40.33,0,0,1-7.93,1.53,32.84,32.84,0,0,0-3.95.67,10.76,10.76,0,0,0-3.2,1.46,7.33,7.33,0,0,0-3.18,6.08,7,7,0,0,0,2.32,5.4,9.6,9.6,0,0,0,6.65,2.11,13.62,13.62,0,0,0,4.9-.87,16.36,16.36,0,0,0,4.76-3,9.52,9.52,0,0,0,.89,3.24h4.65a10,10,0,0,1-1.13-3.16A63,63,0,0,1,603,114.89Zm-4.5-.54a10.64,10.64,0,0,1-.72,4.44,6.83,6.83,0,0,1-2.94,3.08,9.13,9.13,0,0,1-4.57,1.12,5.8,5.8,0,0,1-3.94-1.18,3.85,3.85,0,0,1,1-6.52,16.47,16.47,0,0,1,3.88-.89,33.53,33.53,0,0,0,7.26-1.68Z"/><path class="cls-1" d="M626.81,102.66a8.72,8.72,0,0,0-7.24-3.61,10.44,10.44,0,0,0-5.85,1.71,10.26,10.26,0,0,0-3.93,4.9,18.52,18.52,0,0,0-1.31,7.13,16.78,16.78,0,0,0,1.44,7.13,11.42,11.42,0,0,0,4.08,4.83,10.33,10.33,0,0,0,5.77,1.73,8.16,8.16,0,0,0,7.34-3.91v3.32h4.12V89.66h-4.42Zm-1.67,17.78a6.27,6.27,0,0,1-4.95,2.38,6.42,6.42,0,0,1-5-2.49q-2.11-2.51-2.12-7.54c0-3.48.66-6,2-7.64a6.17,6.17,0,0,1,5-2.42,6.4,6.4,0,0,1,5.12,2.52q2.07,2.52,2.07,7.91Q627.18,118.05,625.14,120.44Z"/><rect class="cls-1" x="504.82" y="89.66" width="4.45" height="36.22"/><path class="cls-1" d="M373.67,228.6q0,7.74-.71,9.73a6.9,6.9,0,0,1-2.65,3.33,7.53,7.53,0,0,1-4.38,1.34,5.9,5.9,0,0,1-3.54-1,5.1,5.1,0,0,1-1.92-2.72q-.53-1.71-.52-9.32V213.38H350.4v22.83a20,20,0,0,0,1.29,8,9.35,9.35,0,0,0,4.18,4.48,13.21,13.21,0,0,0,6.52,1.6,14.52,14.52,0,0,0,6.78-1.66,13.86,13.86,0,0,0,5.18-4.56v5.41h8.87V213.38h-9.55Z"/><path class="cls-1" d="M350.51,111.55q0-5,2.06-6.84a7.23,7.23,0,0,1,4.91-1.8,5.82,5.82,0,0,1,3.1.8,4.27,4.27,0,0,1,1.84,2.15,11.86,11.86,0,0,1,.52,4.06v16h4.45V109.75a25.8,25.8,0,0,0-.25-4.32,8.65,8.65,0,0,0-1.38-3.29,7,7,0,0,0-3-2.24,11.11,11.11,0,0,0-4.36-.85,9.41,9.41,0,0,0-8.35,4.33V99.64h-4v26.25h4.45Z"/><path class="cls-1" d="M487.35,99.05a11.55,11.55,0,0,0-8.85,3.66q-3.4,3.66-3.41,10.28,0,6.39,3.38,9.94a13.62,13.62,0,0,0,16.64,1.32,11.15,11.15,0,0,0,4-6.25l-4.59-.57a8.61,8.61,0,0,1-2.74,4.11,6.87,6.87,0,0,1-4.18,1.28,7.23,7.23,0,0,1-5.48-2.3,10,10,0,0,1-2.45-6.62h19.57c0-.53,0-.92,0-1.18q0-6.51-3.33-10.09A11.26,11.26,0,0,0,487.35,99.05Zm-7.41,11.19a8.1,8.1,0,0,1,2.31-5.48,7.05,7.05,0,0,1,5.15-2.05,6.8,6.8,0,0,1,5.51,2.57,8.91,8.91,0,0,1,1.68,5Z"/><path class="cls-1" d="M408.75,125.28a11,11,0,0,0,4-1.79,9.19,9.19,0,0,0,2.66-3.37,10.56,10.56,0,0,0,1.07-4.74,8.85,8.85,0,0,0-1.76-5.48,9.47,9.47,0,0,0-5.06-3.29,9,9,0,0,0,3.81-3.31,8.21,8.21,0,0,0,1.26-4.37,8.87,8.87,0,0,0-1.42-4.78,8.55,8.55,0,0,0-3.93-3.39,16.86,16.86,0,0,0-6.66-1.1H389.09v36.23H402.9A24.31,24.31,0,0,0,408.75,125.28ZM393.88,93.94h7.24a21,21,0,0,1,5.51.5,4.41,4.41,0,0,1,2.48,1.88A5.89,5.89,0,0,1,410,99.5a5.19,5.19,0,0,1-.93,3.16,5,5,0,0,1-2.75,1.8,17.48,17.48,0,0,1-4.57.42h-7.84Zm0,15.22h8.38a18,18,0,0,1,5.3.6,5.53,5.53,0,0,1,2.88,2.1,6,6,0,0,1,1,3.52,6.32,6.32,0,0,1-.72,3.06,5.27,5.27,0,0,1-1.83,2,7.86,7.86,0,0,1-2.76,1,21.72,21.72,0,0,1-3.27.17h-9Z"/><path class="cls-1" d="M467.1,112a53.83,53.83,0,0,0-6.59-2.07c-2.17-.59-3.48-1-3.93-1.13a4,4,0,0,1-1.7-1.19,2.42,2.42,0,0,1-.55-1.56,3,3,0,0,1,1.31-2.37,7.31,7.31,0,0,1,4.38-1,6.32,6.32,0,0,1,4,1.13,4.78,4.78,0,0,1,1.72,3.17l4.35-.6a9.3,9.3,0,0,0-1.54-4.06,7.33,7.33,0,0,0-3.44-2.41,15.3,15.3,0,0,0-5.43-.89,13.65,13.65,0,0,0-3.84.53,9.47,9.47,0,0,0-2.83,1.3,7.21,7.21,0,0,0-2.18,2.48,6.72,6.72,0,0,0-.81,3.25,6.6,6.6,0,0,0,1,3.52,6.53,6.53,0,0,0,2.87,2.5,42.2,42.2,0,0,0,6.78,2.14,19.45,19.45,0,0,1,4.54,1.5,2.7,2.7,0,0,1,1.31,2.38,3.71,3.71,0,0,1-1.48,2.92,6.89,6.89,0,0,1-4.54,1.25,7.21,7.21,0,0,1-4.74-1.41,6.2,6.2,0,0,1-2.06-4l-4.4.69a9.9,9.9,0,0,0,3.42,6.3q2.69,2.13,7.8,2.13a13.62,13.62,0,0,0,5.54-1.08,8.36,8.36,0,0,0,3.74-3,7.49,7.49,0,0,0,1.3-4.18,6.51,6.51,0,0,0-1.07-3.81A6.65,6.65,0,0,0,467.1,112Z"/><path class="cls-1" d="M406.29,213.72a15.2,15.2,0,0,0-4.1,4.78v-5.12h-8.86v36.08h9.54V238.31q0-9.21.8-12.09a7.47,7.47,0,0,1,2.19-4,5.28,5.28,0,0,1,3.4-1.11,8.38,8.38,0,0,1,4.48,1.56l3-8.32a12.13,12.13,0,0,0-6.29-1.8A7.42,7.42,0,0,0,406.29,213.72Z"/><path class="cls-1" d="M444,114.89V109a24.89,24.89,0,0,0-.22-4.1,7,7,0,0,0-1.38-3,7.23,7.23,0,0,0-3.09-2,15.69,15.69,0,0,0-5.46-.79,17.41,17.41,0,0,0-5.95.93,8.54,8.54,0,0,0-3.93,2.64,10.83,10.83,0,0,0-2,4.51l4.35.59a6.79,6.79,0,0,1,2.21-3.89,7.91,7.91,0,0,1,4.64-1.1,7.44,7.44,0,0,1,5.06,1.51c.84.74,1.26,2,1.26,3.83,0,.16,0,.55,0,1.16a40.33,40.33,0,0,1-7.93,1.53,33.08,33.08,0,0,0-4,.67,11,11,0,0,0-3.2,1.46,7.19,7.19,0,0,0-2.29,2.56,7.1,7.1,0,0,0-.88,3.52,7,7,0,0,0,2.32,5.4c1.55,1.4,3.76,2.11,6.65,2.11a13.65,13.65,0,0,0,4.9-.87,16.36,16.36,0,0,0,4.76-3,9.52,9.52,0,0,0,.89,3.24h4.64a10,10,0,0,1-1.12-3.16A62.25,62.25,0,0,1,444,114.89Zm-4.49-.54a10.64,10.64,0,0,1-.72,4.44,6.88,6.88,0,0,1-2.94,3.08,9.16,9.16,0,0,1-4.57,1.12,5.8,5.8,0,0,1-3.94-1.18,3.93,3.93,0,0,1-.73-5.08,3.84,3.84,0,0,1,1.75-1.44,16.6,16.6,0,0,1,3.88-.89,33.79,33.79,0,0,0,7.27-1.68Z"/></svg>