<svg id="Layer_1" data-name="Layer 1" xmlns="http://www.w3.org/2000/svg" viewBox="0 0 275.23 37.07"><title>sulger-stiftung</title><path d="M16.19,5.1h1.13L19,11.82l-1.45.44A11.49,11.49,0,0,0,13.88,7.8,6.94,6.94,0,0,0,9.73,6.44a6.08,6.08,0,0,0-2.47.49A4,4,0,0,0,5.62,8.21,2.77,2.77,0,0,0,5.08,9.8a2.69,2.69,0,0,0,.42,1.42,3.84,3.84,0,0,0,1.28,1.21A13.13,13.13,0,0,0,9.6,13.52l4.07,1.21a20.17,20.17,0,0,1,2.18.85,8.24,8.24,0,0,1,2.23,1.32,4.85,4.85,0,0,1,1.25,1.7,5.28,5.28,0,0,1,.45,2.18,5.83,5.83,0,0,1-2.27,4.54,8.74,8.74,0,0,1-5.89,1.95,9.59,9.59,0,0,1-3.32-.54,11.78,11.78,0,0,1-3.18-1.91L4.41,26.9H3.31L1.86,19.07l1.45-.3a11.63,11.63,0,0,0,2.12,3.69,9.21,9.21,0,0,0,2.92,2.29,7.52,7.52,0,0,0,3.26.77,6.09,6.09,0,0,0,3.94-1.36A3.39,3.39,0,0,0,17,21.47a3,3,0,0,0-1-2.32,10.12,10.12,0,0,0-3.69-1.69L8.34,16.33A9.92,9.92,0,0,1,3.72,13.9a4.92,4.92,0,0,1-1.34-3.41,4.81,4.81,0,0,1,.87-2.77A6.61,6.61,0,0,1,5.94,5.58a9.19,9.19,0,0,1,4-.86,9.7,9.7,0,0,1,3.47.63A7.38,7.38,0,0,1,15.53,6.6Z"/><path d="M24,11.23h6.05v.94h-.4a2.66,2.66,0,0,0-1.06.15.76.76,0,0,0-.37.38,3.24,3.24,0,0,0-.12,1.09v7.06a6.63,6.63,0,0,0,.45,2.8,3.72,3.72,0,0,0,1.52,1.53,4.54,4.54,0,0,0,2.33.62,4.77,4.77,0,0,0,2.42-.67,3.87,3.87,0,0,0,1.61-1.57,6.7,6.7,0,0,0,.46-2.88V13.89a2.76,2.76,0,0,0-.15-1.07,1,1,0,0,0-.44-.49,2.16,2.16,0,0,0-.93-.16H35v-.94H40.2v.94h-.36a1.73,1.73,0,0,0-1.22.34,1.86,1.86,0,0,0-.33,1.28V21a6.71,6.71,0,0,1-.74,3.3,5.31,5.31,0,0,1-2.16,2.09,7.22,7.22,0,0,1-6.53,0,5.32,5.32,0,0,1-2.16-2,5.75,5.75,0,0,1-.69-3V13.79a2.81,2.81,0,0,0-.14-1,.87.87,0,0,0-.39-.43,2.12,2.12,0,0,0-.9-.14H24Z"/><path d="M44.22,11.23H50.3v.94h-.56a2.23,2.23,0,0,0-.92.13.76.76,0,0,0-.39.36,1.89,1.89,0,0,0-.13.85V24.44a3.65,3.65,0,0,0,.06.9.46.46,0,0,0,.29.29,3.76,3.76,0,0,0,.91.06h.84a6.86,6.86,0,0,0,2.52-.42,5.24,5.24,0,0,0,1.84-1.22,8.58,8.58,0,0,0,1.49-2.4l1,.34L55.5,26.9H44.22V26h.5a2.59,2.59,0,0,0,1-.12.85.85,0,0,0,.38-.41,2.54,2.54,0,0,0,.13-1V13.78a3.2,3.2,0,0,0-.12-1.09.75.75,0,0,0-.36-.4,2.64,2.64,0,0,0-1-.12h-.5Z"/><path d="M72.5,11.23h.82l1.28,4.83-1,.35a8,8,0,0,0-2.33-3.27,4.88,4.88,0,0,0-3-1,5,5,0,0,0-4,2,7.25,7.25,0,0,0-1.62,4.74,8,8,0,0,0,.82,3.63A6.12,6.12,0,0,0,65.69,25a5.44,5.44,0,0,0,2.94.87,5.06,5.06,0,0,0,1.9-.37A4.69,4.69,0,0,0,72,24.66a1.81,1.81,0,0,0,.56-.84,4,4,0,0,0,.14-1.28V21.8a2.75,2.75,0,0,0-.21-1.26A1.17,1.17,0,0,0,71.9,20a5.77,5.77,0,0,0-1.57-.12v-.95h6.34v.95h-.51a2.11,2.11,0,0,0-.91.13.73.73,0,0,0-.35.4,3.36,3.36,0,0,0-.11,1V26.9H73.68l-.6-1.37a8.07,8.07,0,0,1-2,1.06,9.32,9.32,0,0,1-3.16.58,7.28,7.28,0,0,1-5.4-2.32,8,8,0,0,1-2.25-5.78,7.93,7.93,0,0,1,2.28-5.77A7.33,7.33,0,0,1,68,11a7.56,7.56,0,0,1,1.58.16,6.13,6.13,0,0,1,1.41.45,5.68,5.68,0,0,1,1.12.69Z"/><path d="M80.65,11.23H93.39l1.47,4.12-1,.37a6.16,6.16,0,0,0-.81-1.59,4.27,4.27,0,0,0-1-1,3.63,3.63,0,0,0-1.24-.54,12.49,12.49,0,0,0-2.25-.13h-3.8v5.73h1.89a2.83,2.83,0,0,0,1.58-.35,1.84,1.84,0,0,0,.74-.88,4,4,0,0,0,.16-1.37v-.26h1.1v6.87h-1.1v-.59A3.92,3.92,0,0,0,89,20.49a1.64,1.64,0,0,0-.43-.65,1.6,1.6,0,0,0-.68-.42,4.53,4.53,0,0,0-1.25-.12H84.72v5.09a3.55,3.55,0,0,0,.07,1,.51.51,0,0,0,.24.26,3.33,3.33,0,0,0,.93.07h2.35a7.94,7.94,0,0,0,3.07-.47,5.22,5.22,0,0,0,2-1.44,8.23,8.23,0,0,0,1.27-2.15l1,.36L93.87,26.9H80.65V26h.45a2.7,2.7,0,0,0,1-.1.94.94,0,0,0,.45-.47,2.7,2.7,0,0,0,.11-1V13.62a2.3,2.3,0,0,0-.14-1,1,1,0,0,0-.51-.39,6,6,0,0,0-1.34-.08Z"/><path d="M99.32,11.23h8.09a9.71,9.71,0,0,1,3.48.48,4,4,0,0,1,1.82,1.38,3.56,3.56,0,0,1,.63,2.09,3.94,3.94,0,0,1-.62,2.18,4.18,4.18,0,0,1-1.78,1.49,7.76,7.76,0,0,1-3.1.57l4.15,5q.51.63.66.78a3.1,3.1,0,0,0,.83.52,2.5,2.5,0,0,0,1,.18h.28v.95h-3.57l-5.76-7.48h-2v4.83a5,5,0,0,0,.06,1,.93.93,0,0,0,.39.54,2.58,2.58,0,0,0,1.08.15h.4v.95h-6V26h.54a2.5,2.5,0,0,0,.82-.08.93.93,0,0,0,.37-.27,1.22,1.22,0,0,0,.23-.5q0-.12,0-1.14V13.71a2.61,2.61,0,0,0-.13-1,.9.9,0,0,0-.38-.43,2,2,0,0,0-.84-.13h-.64Zm4.07,1.22v5.9h3.23a9.19,9.19,0,0,0,2.3-.2,2.74,2.74,0,0,0,1.49-1,2.91,2.91,0,0,0,.55-1.83,2.93,2.93,0,0,0-.4-1.59,2.51,2.51,0,0,0-1.07-1,5,5,0,0,0-2-.32Z"/><path d="M118.62,18h9.28v1.92h-9.28Z"/><path d="M148.77,5.1h1.12l1.67,6.72-1.45.44a11.57,11.57,0,0,0-3.65-4.46,6.94,6.94,0,0,0-4.15-1.36,6.08,6.08,0,0,0-2.47.49,3.94,3.94,0,0,0-1.64,1.28,2.77,2.77,0,0,0-.54,1.59,2.69,2.69,0,0,0,.42,1.42,3.84,3.84,0,0,0,1.28,1.21,12.92,12.92,0,0,0,2.82,1.09l4.07,1.21a20.17,20.17,0,0,1,2.18.85,8.4,8.4,0,0,1,2.23,1.32,5,5,0,0,1,1.25,1.7,5.28,5.28,0,0,1,.45,2.18,5.83,5.83,0,0,1-2.27,4.54,8.74,8.74,0,0,1-5.89,1.95,9.51,9.51,0,0,1-3.32-.54,11.78,11.78,0,0,1-3.18-1.91L137,26.9h-1.09l-1.45-7.83,1.45-.3A11.63,11.63,0,0,0,138,22.46a9.21,9.21,0,0,0,2.92,2.29,7.49,7.49,0,0,0,3.26.77,6,6,0,0,0,3.93-1.36,3.37,3.37,0,0,0,1.41-2.69,3,3,0,0,0-1-2.32,10.12,10.12,0,0,0-3.69-1.69l-3.91-1.13a9.82,9.82,0,0,1-4.62-2.43A4.93,4.93,0,0,1,135,10.49a4.75,4.75,0,0,1,.88-2.77,6.61,6.61,0,0,1,2.69-2.14,9.15,9.15,0,0,1,4-.86,9.66,9.66,0,0,1,3.47.63,7.56,7.56,0,0,1,2.16,1.25Z"/><path d="M158,11.12h.77l.11.52h9.36l.09-.52h.8l1.6,4.49-1,.35A5.68,5.68,0,0,0,168,13.44a4,4,0,0,0-2.49-.73,3.19,3.19,0,0,0-.75,0,.26.26,0,0,0-.17.17,2.73,2.73,0,0,0,0,.76V24.28a4.37,4.37,0,0,0,.08,1,.86.86,0,0,0,.23.4.91.91,0,0,0,.43.21,7.75,7.75,0,0,0,1.19.07v.92h-5.88V26a7.12,7.12,0,0,0,1.19-.07.83.83,0,0,0,.55-.42,2.65,2.65,0,0,0,.16-1.13V13.55a1.86,1.86,0,0,0-.05-.61.33.33,0,0,0-.18-.17,1.7,1.7,0,0,0-.57-.06,4.85,4.85,0,0,0-1.91.31,3.84,3.84,0,0,0-1.35,1,6.32,6.32,0,0,0-1.08,1.9l-1-.35Z"/><path d="M173.81,11.64h5.84v.92h-.45a1.85,1.85,0,0,0-.91.17,1.08,1.08,0,0,0-.42.5,3.91,3.91,0,0,0-.13,1.26v9.84a2.88,2.88,0,0,0,.14,1.05,1,1,0,0,0,.4.46,2.16,2.16,0,0,0,.92.14h.45v.92h-5.84V26h.48a2,2,0,0,0,.92-.15.89.89,0,0,0,.38-.43,3.1,3.1,0,0,0,.12-1.07V14.26a3.56,3.56,0,0,0-.12-1.14.89.89,0,0,0-.38-.43,2.26,2.26,0,0,0-.92-.13h-.48Z"/><path d="M184.15,11.64h11.67l1.41,4-.95.36a7.25,7.25,0,0,0-1.18-2,3.4,3.4,0,0,0-1.35-.88,8.19,8.19,0,0,0-2.4-.26h-3.3v5.86h1.5a4.4,4.4,0,0,0,1.7-.23,1.67,1.67,0,0,0,.79-.72,3,3,0,0,0,.27-1.42v-.4h1.07v6.69h-1.07V22a2.81,2.81,0,0,0-.27-1.35,1.53,1.53,0,0,0-.71-.69,4.25,4.25,0,0,0-1.61-.21h-1.67v4.74a2.16,2.16,0,0,0,.14.92.91.91,0,0,0,.41.39,2.26,2.26,0,0,0,1,.14H190v.92h-5.81V26h.37a2.61,2.61,0,0,0,1-.13.82.82,0,0,0,.39-.41,2.68,2.68,0,0,0,.13-1V14.06a2.7,2.7,0,0,0-.12-1,.78.78,0,0,0-.37-.41,2.14,2.14,0,0,0-.86-.12h-.51Z"/><path d="M201.08,11.12h.77l.11.52h9.36l.09-.52h.8l1.6,4.49-1,.35a5.68,5.68,0,0,0-1.69-2.52,4,4,0,0,0-2.49-.73,3.19,3.19,0,0,0-.75,0,.26.26,0,0,0-.17.17,2.73,2.73,0,0,0,0,.76V24.28a4.37,4.37,0,0,0,.08,1,.86.86,0,0,0,.23.4.91.91,0,0,0,.43.21,7.75,7.75,0,0,0,1.19.07v.92h-5.88V26a7.12,7.12,0,0,0,1.19-.07.83.83,0,0,0,.55-.42,2.65,2.65,0,0,0,.16-1.13V13.55a1.86,1.86,0,0,0,0-.61.33.33,0,0,0-.18-.17,1.74,1.74,0,0,0-.57-.06,4.85,4.85,0,0,0-1.91.31,3.84,3.84,0,0,0-1.35,1,6.32,6.32,0,0,0-1.08,1.9l-1-.35Z"/><path d="M216.88,11.64h5.89v.92h-.39a2.76,2.76,0,0,0-1,.14.72.72,0,0,0-.36.37,3,3,0,0,0-.12,1.06V21a6.46,6.46,0,0,0,.44,2.72,3.65,3.65,0,0,0,1.48,1.49,4.43,4.43,0,0,0,2.27.6,4.63,4.63,0,0,0,2.36-.64A3.8,3.8,0,0,0,229,23.65a6.61,6.61,0,0,0,.44-2.81V14.23a2.74,2.74,0,0,0-.14-1.05.94.94,0,0,0-.43-.47,2,2,0,0,0-.9-.15h-.43v-.92h5.11v.92h-.35a1.66,1.66,0,0,0-1.19.33,1.81,1.81,0,0,0-.32,1.24v7a6.53,6.53,0,0,1-.72,3.22,5.2,5.2,0,0,1-2.1,2,7.05,7.05,0,0,1-6.37,0,5.17,5.17,0,0,1-2.1-1.91,5.54,5.54,0,0,1-.68-2.87V14.13a2.75,2.75,0,0,0-.13-1,.82.82,0,0,0-.38-.42,2,2,0,0,0-.87-.13h-.55Z"/><path d="M236.88,11.64h4.68l6.94,11.44V14.37a3,3,0,0,0-.15-1.12,1.17,1.17,0,0,0-.46-.52,2,2,0,0,0-.91-.17h-.39v-.92h5.09v.92h-.27a2.35,2.35,0,0,0-.91.11,1,1,0,0,0-.51.56,3.11,3.11,0,0,0-.17,1.14V26.9H248.5l-8.37-13.75V24a5.7,5.7,0,0,0,.06,1.11,1.12,1.12,0,0,0,.28.46,1.08,1.08,0,0,0,.47.28,5.5,5.5,0,0,0,1.11.09v.92h-5.17V26h.28a2.31,2.31,0,0,0,1.06-.16,1,1,0,0,0,.44-.52,3.73,3.73,0,0,0,.15-1.26V14.37a9.89,9.89,0,0,0,0-1.11.88.88,0,0,0-.38-.54,2.51,2.51,0,0,0-1.11-.16h-.4Z"/><path d="M268,11.64h.8l1.25,4.7-1,.34a7.7,7.7,0,0,0-2.26-3.18,4.69,4.69,0,0,0-2.9-.95,4.84,4.84,0,0,0-3.9,1.93,7.09,7.09,0,0,0-1.58,4.62,7.73,7.73,0,0,0,.81,3.53,5.87,5.87,0,0,0,2.15,2.45,5.31,5.31,0,0,0,2.85.84,5,5,0,0,0,1.86-.35,4.88,4.88,0,0,0,1.43-.85,2,2,0,0,0,.55-.82,4.22,4.22,0,0,0,.13-1.25v-.72a2.72,2.72,0,0,0-.2-1.22,1.13,1.13,0,0,0-.58-.52,5.5,5.5,0,0,0-1.53-.12v-.92h6.18v.92h-.5a2,2,0,0,0-.88.13.75.75,0,0,0-.35.39,3.14,3.14,0,0,0-.11,1V26.9h-1.08l-.58-1.34a7.54,7.54,0,0,1-2,1,9.07,9.07,0,0,1-3.07.56,7.07,7.07,0,0,1-5.27-2.26,7.77,7.77,0,0,1-2.19-5.63,7.74,7.74,0,0,1,2.22-5.62,7.15,7.15,0,0,1,5.32-2.27,7.93,7.93,0,0,1,1.53.15,6.37,6.37,0,0,1,1.38.44,6.2,6.2,0,0,1,1.09.67Z"/></svg>